<mxfile modified="2020-09-03T16:49:57.455Z" host="app.diagrams.net" agent="5.0 (X11; Linux x86_64) AppleWebKit/537.36 (KHTML, like Gecko) Chrome/84.0.4147.125 Safari/537.36" etag="qaeDNlvDiZ-PllPUDp80" version="13.6.6" type="github">
  <diagram id="f106602c-feb2-e66a-4537-3a34d633f6aa" name="Page-1">
    <mxGraphModel dx="1422" dy="741" grid="1" gridSize="10" guides="1" tooltips="1" connect="1" arrows="1" fold="1" page="1" pageScale="1" pageWidth="1169" pageHeight="827" background="#ffffff" math="0" shadow="0">
      <root>
        <mxCell id="0" />
        <mxCell id="1" parent="0" />
        <mxCell id="ZrYJ6lCHbDqSPWeXBW4n-755" value="" style="whiteSpace=wrap;html=1;shadow=0;fillColor=#D5E8D4;strokeColor=none;" vertex="1" parent="1">
          <mxGeometry x="80" y="40" width="240" height="640" as="geometry" />
        </mxCell>
        <mxCell id="14" value="&lt;b&gt;Kubernetes Cluster (running on XLC)&lt;/b&gt;" style="fillColor=#F6F6F6;strokeColor=none;shadow=0;gradientColor=none;fontSize=14;align=left;spacing=10;fontColor=#717171;9E9E9E;verticalAlign=top;spacingTop=-4;fontStyle=0;spacingLeft=40;html=1;" parent="1" vertex="1">
          <mxGeometry x="609" y="100" width="420" height="580" as="geometry" />
        </mxCell>
        <mxCell id="711" value="Workers&lt;br&gt;" style="rounded=1;absoluteArcSize=1;arcSize=2;html=1;strokeColor=none;gradientColor=none;shadow=0;dashed=0;strokeColor=none;fontSize=12;fontColor=#9E9E9E;align=left;verticalAlign=top;spacing=10;spacingTop=-4;fillColor=#E1F5FE;" parent="1" vertex="1">
          <mxGeometry x="639" y="294" width="360" height="366" as="geometry" />
        </mxCell>
        <mxCell id="ZrYJ6lCHbDqSPWeXBW4n-738" style="edgeStyle=orthogonalEdgeStyle;rounded=0;orthogonalLoop=1;jettySize=auto;html=1;entryX=0.5;entryY=0;entryDx=0;entryDy=0;" edge="1" parent="1" target="697">
          <mxGeometry relative="1" as="geometry">
            <mxPoint x="484" y="280" as="sourcePoint" />
          </mxGeometry>
        </mxCell>
        <mxCell id="705" value="&lt;font color=&quot;#4d4d4d&quot;&gt;NFS Server / Persistent Storage&lt;/font&gt;&lt;br&gt;&lt;br&gt;&lt;br&gt;&lt;br&gt;&lt;br&gt;&lt;br&gt;&lt;br&gt;&lt;b&gt;&lt;font color=&quot;#4d4d4d&quot;&gt;/data&lt;/font&gt;&lt;/b&gt;" style="rounded=1;absoluteArcSize=1;arcSize=2;html=1;strokeColor=none;gradientColor=none;shadow=0;dashed=0;strokeColor=none;fontSize=12;fontColor=#9E9E9E;align=left;verticalAlign=top;spacing=10;spacingTop=-4;fillColor=#FFF8E1;" parent="1" vertex="1">
          <mxGeometry x="389" y="120" width="190" height="140" as="geometry" />
        </mxCell>
        <mxCell id="2" value="Architecture: PoC Kubernetes &amp;amp; Jenkins :&amp;nbsp; Continuos Integration / Continuos Delivery / Deployment" style="fillColor=#4DA1F5;strokeColor=none;shadow=1;gradientColor=none;fontSize=14;align=left;spacingLeft=50;fontColor=#ffffff;html=1;" parent="1" vertex="1">
          <mxGeometry x="361" y="40" width="710" height="40" as="geometry" />
        </mxCell>
        <mxCell id="697" value="&lt;font color=&quot;#4d4d4d&quot;&gt;&amp;nbsp; &amp;nbsp; &amp;nbsp; &amp;nbsp; workerx&lt;/font&gt;" style="strokeColor=#dddddd;fillColor=#ffffff;shadow=1;strokeWidth=1;rounded=1;absoluteArcSize=1;arcSize=2;fontSize=10;fontColor=#9E9E9E;align=center;html=1;" parent="1" vertex="1">
          <mxGeometry x="649" y="324" width="150" height="60" as="geometry" />
        </mxCell>
        <mxCell id="699" value="&lt;font color=&quot;#4d4d4d&quot;&gt;masterx&lt;/font&gt;" style="strokeColor=#dddddd;fillColor=#ffffff;shadow=1;strokeWidth=1;rounded=1;absoluteArcSize=1;arcSize=2;fontSize=10;fontColor=#9E9E9E;align=center;html=1;" parent="1" vertex="1">
          <mxGeometry x="744" y="170" width="150" height="60" as="geometry" />
        </mxCell>
        <mxCell id="703" value="&amp;nbsp; &amp;nbsp; &amp;nbsp; &amp;nbsp; workerxx" style="strokeColor=#dddddd;fillColor=#ffffff;shadow=1;strokeWidth=1;rounded=1;absoluteArcSize=1;arcSize=2;fontSize=10;fontColor=#9E9E9E;align=center;html=1;" parent="1" vertex="1">
          <mxGeometry x="652.58" y="570" width="150" height="60" as="geometry" />
        </mxCell>
        <mxCell id="ZrYJ6lCHbDqSPWeXBW4n-719" value="" style="aspect=fixed;html=1;points=[];align=center;image;fontSize=12;image=img/lib/mscae/Kubernetes.svg;" vertex="1" parent="1">
          <mxGeometry x="613" y="103" width="39.58" height="38" as="geometry" />
        </mxCell>
        <mxCell id="ZrYJ6lCHbDqSPWeXBW4n-723" value="" style="html=1;dashed=0;whitespace=wrap;fillColor=#2875E2;strokeColor=#ffffff;points=[[0.005,0.63,0],[0.1,0.2,0],[0.9,0.2,0],[0.5,0,0],[0.995,0.63,0],[0.72,0.99,0],[0.5,1,0],[0.28,0.99,0]];shape=mxgraph.kubernetes.icon;prIcon=master" vertex="1" parent="1">
          <mxGeometry x="749" y="176" width="50" height="48" as="geometry" />
        </mxCell>
        <mxCell id="ZrYJ6lCHbDqSPWeXBW4n-724" value="" style="html=1;dashed=0;whitespace=wrap;fillColor=#2875E2;strokeColor=#ffffff;points=[[0.005,0.63,0],[0.1,0.2,0],[0.9,0.2,0],[0.5,0,0],[0.995,0.63,0],[0.72,0.99,0],[0.5,1,0],[0.28,0.99,0]];shape=mxgraph.kubernetes.icon;prIcon=node" vertex="1" parent="1">
          <mxGeometry x="659" y="330" width="50" height="48" as="geometry" />
        </mxCell>
        <mxCell id="ZrYJ6lCHbDqSPWeXBW4n-727" value="" style="html=1;dashed=0;whitespace=wrap;fillColor=#2875E2;strokeColor=#ffffff;points=[[0.005,0.63,0],[0.1,0.2,0],[0.9,0.2,0],[0.5,0,0],[0.995,0.63,0],[0.72,0.99,0],[0.5,1,0],[0.28,0.99,0]];shape=mxgraph.kubernetes.icon;prIcon=node" vertex="1" parent="1">
          <mxGeometry x="659" y="576" width="50" height="48" as="geometry" />
        </mxCell>
        <mxCell id="ZrYJ6lCHbDqSPWeXBW4n-728" style="edgeStyle=orthogonalEdgeStyle;rounded=0;orthogonalLoop=1;jettySize=auto;html=1;exitX=0.5;exitY=1;exitDx=0;exitDy=0;" edge="1" parent="1" source="14" target="14">
          <mxGeometry relative="1" as="geometry" />
        </mxCell>
        <mxCell id="ZrYJ6lCHbDqSPWeXBW4n-729" value="" style="html=1;dashed=0;whitespace=wrap;fillColor=#2875E2;strokeColor=#ffffff;points=[[0.005,0.63,0],[0.1,0.2,0],[0.9,0.2,0],[0.5,0,0],[0.995,0.63,0],[0.72,0.99,0],[0.5,1,0],[0.28,0.99,0]];shape=mxgraph.kubernetes.icon;prIcon=pv" vertex="1" parent="1">
          <mxGeometry x="449" y="160" width="50" height="48" as="geometry" />
        </mxCell>
        <mxCell id="ZrYJ6lCHbDqSPWeXBW4n-731" value="&amp;nbsp; &amp;nbsp; &amp;nbsp; &amp;nbsp; &amp;nbsp; &amp;nbsp; &amp;nbsp; &amp;nbsp; &amp;nbsp; &amp;nbsp; &amp;nbsp; &amp;nbsp;&lt;font color=&quot;#4d4d4d&quot;&gt; Docker Registry&lt;/font&gt;" style="strokeColor=#dddddd;fillColor=#ffffff;shadow=1;strokeWidth=1;rounded=1;absoluteArcSize=1;arcSize=2;fontSize=10;fontColor=#9E9E9E;align=center;html=1;" vertex="1" parent="1">
          <mxGeometry x="689" y="404" width="150" height="60" as="geometry" />
        </mxCell>
        <mxCell id="ZrYJ6lCHbDqSPWeXBW4n-730" value="" style="html=1;dashed=0;whitespace=wrap;fillColor=#2875E2;strokeColor=#ffffff;points=[[0.005,0.63,0],[0.1,0.2,0],[0.9,0.2,0],[0.5,0,0],[0.995,0.63,0],[0.72,0.99,0],[0.5,1,0],[0.28,0.99,0]];shape=mxgraph.kubernetes.icon;prIcon=pod" vertex="1" parent="1">
          <mxGeometry x="700" y="410" width="50" height="48" as="geometry" />
        </mxCell>
        <mxCell id="ZrYJ6lCHbDqSPWeXBW4n-735" style="edgeStyle=orthogonalEdgeStyle;rounded=0;orthogonalLoop=1;jettySize=auto;html=1;exitX=1;exitY=0.5;exitDx=0;exitDy=0;entryX=0;entryY=0.5;entryDx=0;entryDy=0;" edge="1" parent="1" source="ZrYJ6lCHbDqSPWeXBW4n-734" target="ZrYJ6lCHbDqSPWeXBW4n-731">
          <mxGeometry relative="1" as="geometry" />
        </mxCell>
        <mxCell id="ZrYJ6lCHbDqSPWeXBW4n-737" style="edgeStyle=orthogonalEdgeStyle;rounded=0;orthogonalLoop=1;jettySize=auto;html=1;exitX=0.5;exitY=0;exitDx=0;exitDy=0;entryX=0.5;entryY=1;entryDx=0;entryDy=0;" edge="1" parent="1" source="ZrYJ6lCHbDqSPWeXBW4n-734" target="705">
          <mxGeometry relative="1" as="geometry" />
        </mxCell>
        <mxCell id="ZrYJ6lCHbDqSPWeXBW4n-742" style="edgeStyle=orthogonalEdgeStyle;rounded=0;orthogonalLoop=1;jettySize=auto;html=1;exitX=0.5;exitY=1;exitDx=0;exitDy=0;entryX=0.5;entryY=0;entryDx=0;entryDy=0;" edge="1" parent="1" source="ZrYJ6lCHbDqSPWeXBW4n-734" target="ZrYJ6lCHbDqSPWeXBW4n-739">
          <mxGeometry relative="1" as="geometry" />
        </mxCell>
        <mxCell id="ZrYJ6lCHbDqSPWeXBW4n-744" style="edgeStyle=orthogonalEdgeStyle;rounded=0;orthogonalLoop=1;jettySize=auto;html=1;" edge="1" parent="1">
          <mxGeometry relative="1" as="geometry">
            <mxPoint x="719" y="318" as="targetPoint" />
            <mxPoint x="484" y="458" as="sourcePoint" />
            <Array as="points">
              <mxPoint x="609" y="458" />
              <mxPoint x="609" y="290" />
              <mxPoint x="719" y="290" />
            </Array>
          </mxGeometry>
        </mxCell>
        <mxCell id="ZrYJ6lCHbDqSPWeXBW4n-734" value="&lt;font color=&quot;#4d4d4d&quot;&gt;HELM&lt;/font&gt;" style="rounded=1;absoluteArcSize=1;arcSize=2;html=1;strokeColor=none;gradientColor=none;shadow=0;dashed=0;strokeColor=none;fontSize=12;fontColor=#9E9E9E;align=left;verticalAlign=top;spacing=10;spacingTop=-4;fillColor=#FFF8E1;" vertex="1" parent="1">
          <mxGeometry x="389" y="294" width="190" height="140" as="geometry" />
        </mxCell>
        <mxCell id="ZrYJ6lCHbDqSPWeXBW4n-736" value="" style="shape=image;html=1;verticalAlign=top;verticalLabelPosition=bottom;labelBackgroundColor=#ffffff;imageAspect=0;aspect=fixed;image=https://cdn4.iconfinder.com/data/icons/logos-brands-5/24/kubernetes-128.png" vertex="1" parent="1">
          <mxGeometry x="444" y="330" width="60" height="60" as="geometry" />
        </mxCell>
        <mxCell id="ZrYJ6lCHbDqSPWeXBW4n-739" value="&lt;font color=&quot;#4d4d4d&quot;&gt;Jenkins&lt;/font&gt;" style="rounded=1;absoluteArcSize=1;arcSize=2;html=1;strokeColor=none;gradientColor=none;shadow=0;dashed=0;strokeColor=none;fontSize=12;fontColor=#9E9E9E;align=left;verticalAlign=top;spacing=10;spacingTop=-4;fillColor=#FFF8E1;" vertex="1" parent="1">
          <mxGeometry x="389" y="481" width="190" height="140" as="geometry" />
        </mxCell>
        <mxCell id="ZrYJ6lCHbDqSPWeXBW4n-741" value="" style="shape=image;html=1;verticalAlign=top;verticalLabelPosition=bottom;labelBackgroundColor=#ffffff;imageAspect=0;aspect=fixed;image=https://cdn4.iconfinder.com/data/icons/logos-brands-5/24/jenkins-128.png" vertex="1" parent="1">
          <mxGeometry x="434" y="513" width="80" height="80" as="geometry" />
        </mxCell>
        <mxCell id="ZrYJ6lCHbDqSPWeXBW4n-745" value="&amp;nbsp; &amp;nbsp; &amp;nbsp; &amp;nbsp; &amp;nbsp; &amp;nbsp; &amp;nbsp; &amp;nbsp; &amp;nbsp; &amp;nbsp; &lt;font color=&quot;#4d4d4d&quot;&gt;Jenkins Slave&lt;/font&gt;" style="strokeColor=#dddddd;fillColor=#ffffff;shadow=1;strokeWidth=1;rounded=1;absoluteArcSize=1;arcSize=2;fontSize=10;fontColor=#9E9E9E;align=center;html=1;" vertex="1" parent="1">
          <mxGeometry x="689" y="481" width="150" height="60" as="geometry" />
        </mxCell>
        <mxCell id="ZrYJ6lCHbDqSPWeXBW4n-746" value="" style="html=1;dashed=0;whitespace=wrap;fillColor=#2875E2;strokeColor=#ffffff;points=[[0.005,0.63,0],[0.1,0.2,0],[0.9,0.2,0],[0.5,0,0],[0.995,0.63,0],[0.72,0.99,0],[0.5,1,0],[0.28,0.99,0]];shape=mxgraph.kubernetes.icon;prIcon=pod" vertex="1" parent="1">
          <mxGeometry x="700" y="487" width="50" height="48" as="geometry" />
        </mxCell>
        <UserObject label="10.12.91.186:30500" link="10.12.91.186:30500" id="ZrYJ6lCHbDqSPWeXBW4n-749">
          <mxCell style="text;whiteSpace=wrap;html=1;" vertex="1" parent="1">
            <mxGeometry x="859" y="419" width="130" height="30" as="geometry" />
          </mxCell>
        </UserObject>
        <UserObject label="10.12.91.129:32080" link="10.12.91.129:32080" id="ZrYJ6lCHbDqSPWeXBW4n-750">
          <mxCell style="text;whiteSpace=wrap;html=1;" vertex="1" parent="1">
            <mxGeometry x="459" y="600" width="130" height="30" as="geometry" />
          </mxCell>
        </UserObject>
        <UserObject label="10.44.0.6" link="10.44.0.6" id="ZrYJ6lCHbDqSPWeXBW4n-751">
          <mxCell style="text;whiteSpace=wrap;html=1;" vertex="1" parent="1">
            <mxGeometry x="489" y="240" width="80" height="30" as="geometry" />
          </mxCell>
        </UserObject>
        <mxCell id="ZrYJ6lCHbDqSPWeXBW4n-752" value="" style="aspect=fixed;perimeter=ellipsePerimeter;html=1;align=center;shadow=0;dashed=0;spacingTop=3;image;image=img/lib/active_directory/generic_server.svg;" vertex="1" parent="1">
          <mxGeometry x="150" y="54" width="78.4" height="140" as="geometry" />
        </mxCell>
        <UserObject label="sbybz220101.sby.dst.ibm.com&lt;br&gt;&lt;br&gt;RAM: 8GB&lt;br&gt;CPU: 2&lt;br&gt;HD: 100GB&lt;br&gt;&lt;br&gt;&lt;div&gt;Distributor ID:&lt;span&gt;	&lt;/span&gt;Ubuntu&lt;/div&gt;&lt;div&gt;Description:&lt;span&gt;	&lt;/span&gt;Ubuntu 19.04&lt;/div&gt;&lt;div&gt;Release:&lt;span&gt;	&lt;/span&gt;19.04&lt;/div&gt;&lt;div&gt;Codename:&lt;span&gt;	&lt;/span&gt;disco&lt;/div&gt;&lt;div&gt;&lt;br&gt;&lt;/div&gt;" id="ZrYJ6lCHbDqSPWeXBW4n-753">
          <mxCell style="text;whiteSpace=wrap;html=1;shadow=0;fontStyle=1" vertex="1" parent="1">
            <mxGeometry x="100" y="198" width="190" height="192" as="geometry" />
          </mxCell>
        </UserObject>
        <mxCell id="ZrYJ6lCHbDqSPWeXBW4n-757" style="edgeStyle=none;shape=link;rounded=0;orthogonalLoop=1;jettySize=auto;html=1;exitX=1;exitY=0;exitDx=0;exitDy=0;entryX=1;entryY=1;entryDx=0;entryDy=0;" edge="1" parent="1">
          <mxGeometry relative="1" as="geometry">
            <mxPoint x="342" y="40" as="sourcePoint" />
            <mxPoint x="342" y="680" as="targetPoint" />
          </mxGeometry>
        </mxCell>
        <mxCell id="ZrYJ6lCHbDqSPWeXBW4n-759" value="10.12.91.214 (eth0)" style="text;whiteSpace=wrap;html=1;" vertex="1" parent="1">
          <mxGeometry x="899" y="185" width="130" height="30" as="geometry" />
        </mxCell>
        <mxCell id="ZrYJ6lCHbDqSPWeXBW4n-760" value="10.12.91.186 (eth0)" style="text;whiteSpace=wrap;html=1;" vertex="1" parent="1">
          <mxGeometry x="810" y="585" width="130" height="30" as="geometry" />
        </mxCell>
        <mxCell id="ZrYJ6lCHbDqSPWeXBW4n-761" value="10.12.91.129 (eth0)" style="text;whiteSpace=wrap;html=1;" vertex="1" parent="1">
          <mxGeometry x="810" y="345" width="130" height="30" as="geometry" />
        </mxCell>
      </root>
    </mxGraphModel>
  </diagram>
</mxfile>
